<svg xmlns="http://www.w3.org/2000/svg" viewBox="0 0 1400 430" role="img" aria-labelledby="title desc">
<title id="title">Logo Singular horizontal</title>
<desc id="desc">Symbole Singular en dégradé, nom Singular et signature Digital Life vectorisés.</desc>
<defs>
  <linearGradient id="singularGradient" x1="0" y1="0" x2="1" y2="1">
    <stop offset="0" stop-color="#0A1BFF"/><stop offset=".48" stop-color="#2D6BFF"/>
    <stop offset=".72" stop-color="#00A7FF"/><stop offset="1" stop-color="#00E0D1"/>
  </linearGradient>
</defs>
<g transform="translate(40,-12) scale(.82)">
  <path d="M112 210V137L256 54l144 83v82l-44-25v-31l-100-58-100 58v22l100 58 144 83v75l-144 83-144-83v-82l44 25v31l100 58 100-58v-23l-100-58-144-83z" fill="url(#singularGradient)"/>
  <circle cx="256" cy="256" r="38" fill="#0B1124" stroke="url(#singularGradient)" stroke-width="18"/>
  <g fill="none" stroke="url(#singularGradient)" stroke-width="14" stroke-linecap="round">
    <path d="M256 218V172"/><path d="M238 286l-48 39"/><path d="M274 286l48 39"/><path d="M256 294v53"/>
  </g>
  <g fill="url(#singularGradient)"><circle cx="256" cy="157" r="15"/><circle cx="176" cy="337" r="15"/><circle cx="336" cy="337" r="15"/><circle cx="256" cy="364" r="15"/></g>
</g>
  <g fill="#0B1124" fill-rule="evenodd" aria-label="SINGULAR">
    <path d="M70 0H15C7 0 0 7 0 15V43C0 51 7 58 15 58H50V78H0V100H55C63 100 70 93 70 85V57C70 49 63 42 55 42H20V22H70Z" transform="translate(485 230) scale(0.92 -0.92)"/>
    <path d="M0 0H24V100H0Z" transform="translate(567.4 230) scale(0.92 -0.92)"/>
    <path d="M0 100V0H22L52 61V0H75V100H53L23 39V100Z" transform="translate(607.48 230) scale(0.92 -0.92)"/>
    <path d="M70 22V0H15C7 0 0 7 0 15V85C0 93 7 100 15 100H70V48H40V68H48V78H23V22Z" transform="translate(694.48 230) scale(0.92 -0.92)"/>
    <path d="M0 0H23V78H52V0H75V85C75 93 68 100 60 100H15C7 100 0 93 0 85Z" transform="translate(781.48 230) scale(0.92 -0.92)"/>
    <path d="M0 0H23V78H70V100H0Z" transform="translate(868.48 230) scale(0.92 -0.92)"/>
    <path d="M0 100L25 0H50L75 100H51L46 78H29L24 100ZM33 58H42L37.5 36Z" transform="translate(950.88 230) scale(0.92 -0.92)"/>
    <path d="M0 100V0H58C66 0 73 7 73 15V48C73 56 67 62 60 63L78 100H52L35 64H23V100ZM23 22V43H50V22Z" transform="translate(1037.88 230) scale(0.92 -0.92)"/>
  </g>
  <path d="M540 304H670M1115 304H1245" fill="none" stroke="#2D6BFF" stroke-width="5"/>
  <g fill="#167BEF" fill-rule="evenodd" aria-label="DIGITAL LIFE">
    <path d="M0 100V0H55C66 0 75 9 75 20V80C75 91 66 100 55 100ZM23 22V78H50V22Z" transform="translate(705 317) scale(0.25 -0.25)"/>
    <path d="M0 0H24V100H0Z" transform="translate(736.75 317) scale(0.25 -0.25)"/>
    <path d="M70 22V0H15C7 0 0 7 0 15V85C0 93 7 100 15 100H70V48H40V68H48V78H23V22Z" transform="translate(755.75 317) scale(0.25 -0.25)"/>
    <path d="M0 0H24V100H0Z" transform="translate(787.5 317) scale(0.25 -0.25)"/>
    <path d="M0 0H75V22H49V100H26V22H0Z" transform="translate(806.5 317) scale(0.25 -0.25)"/>
    <path d="M0 100L25 0H50L75 100H51L46 78H29L24 100ZM33 58H42L37.5 36Z" transform="translate(838.25 317) scale(0.25 -0.25)"/>
    <path d="M0 0H23V78H70V100H0Z" transform="translate(870 317) scale(0.25 -0.25)"/>
    <path d="M0 0H23V78H70V100H0Z" transform="translate(922.25 317) scale(0.25 -0.25)"/>
    <path d="M0 0H24V100H0Z" transform="translate(952.75 317) scale(0.25 -0.25)"/>
    <path d="M0 100V0H70V22H23V42H62V64H23V100Z" transform="translate(971.75 317) scale(0.25 -0.25)"/>
    <path d="M0 100V0H70V22H23V39H62V61H23V78H70V100Z" transform="translate(1002.25 317) scale(0.25 -0.25)"/>
  </g>
</svg>
